<!-- <svg width="524.316" height="77.149" viewBox="0 0 524.316 77.149" xmlns="http://www.w3.org/2000/svg"><g id="svgGroup" stroke-linecap="round" fill-rule="evenodd" font-size="9pt" stroke="#46bec7" stroke-width="0.25mm" fill="#46bec7" style="stroke:#46bec7;stroke-width:0.25mm;fill:#46bec7"><path d="M 42.383 0 L 42.383 2.539 L 50.684 2.539 L 50.684 46.289 L 13.574 0 L 0 0 L 0 2.539 L 7.813 2.539 L 7.813 56.055 L 0 56.055 L 0 58.594 L 20.02 58.594 A 4.438 4.438 0 0 0 19.945 57.743 Q 19.854 57.28 19.653 56.948 A 1.689 1.689 0 0 0 18.457 56.153 Q 17.969 56.055 17.48 56.055 L 11.719 56.055 L 11.719 10.84 L 50.098 59.082 L 54.59 58.106 L 54.59 2.539 L 62.402 2.539 L 62.402 0 L 42.383 0 Z M 121.289 19.532 L 128.613 19.532 L 128.613 17.09 L 109.277 17.09 L 109.277 19.532 L 113.672 19.532 L 125.879 52.247 Q 127.93 57.813 130.078 58.692 Q 130.963 59.014 132.179 59.07 A 11.503 11.503 0 0 0 132.715 59.082 L 134.668 59.082 L 143.164 33.497 L 149.707 52.247 Q 151.418 57.288 153.211 58.512 A 2.62 2.62 0 0 0 153.516 58.692 Q 154.179 58.957 155.159 59.042 A 11.519 11.519 0 0 0 156.152 59.082 L 157.715 59.082 L 169.531 23.047 A 13.268 13.268 0 0 1 169.977 21.849 Q 170.807 19.934 171.875 19.629 A 4.931 4.931 0 0 1 172.455 19.55 A 6.304 6.304 0 0 1 172.949 19.532 Q 173.931 19.532 174.526 19.246 A 1.497 1.497 0 0 0 175.391 18.164 A 4.931 4.931 0 0 0 175.47 17.584 A 6.304 6.304 0 0 0 175.488 17.09 L 161.035 17.09 L 161.035 19.532 L 167.871 19.532 L 157.031 53.223 L 145.605 19.532 L 152.441 19.532 L 152.441 17.09 L 137.402 17.09 L 141.797 29.493 L 133.691 53.516 L 121.289 19.532 Z M 198.438 58.594 L 222.363 58.594 L 222.363 56.055 L 214.648 56.055 L 214.648 31.739 L 223.926 31.739 L 239.551 58.594 L 254.297 58.594 A 6.008 6.008 0 0 0 254.249 57.798 Q 254.059 56.386 253.125 56.153 Q 252.637 56.055 251.953 56.055 L 248.242 56.055 L 232.52 30.86 A 22.694 22.694 0 0 0 238.205 28.704 A 16.103 16.103 0 0 0 245.215 21.192 A 14.914 14.914 0 0 0 246.479 15.613 A 14.399 14.399 0 0 0 246.484 15.235 A 13.279 13.279 0 0 0 241.965 4.961 A 17.858 17.858 0 0 0 240.137 3.516 A 19.861 19.861 0 0 0 232.766 0.505 A 27.755 27.755 0 0 0 227.344 0 L 198.438 0 L 198.438 2.539 L 206.25 2.539 L 206.25 56.055 L 198.438 56.055 L 198.438 58.594 Z M 403.613 56.153 L 398.73 56.153 L 398.73 17.09 L 383.398 17.09 L 383.398 19.532 L 391.406 19.532 L 391.406 40.625 A 19.81 19.81 0 0 1 390.805 45.661 A 13.119 13.119 0 0 1 385.254 53.516 A 11.158 11.158 0 0 1 382.515 54.893 A 9.205 9.205 0 0 1 379.59 55.372 A 11.494 11.494 0 0 1 375.909 54.826 Q 372.35 53.626 370.962 49.784 A 13.989 13.989 0 0 1 370.312 47.168 A 19.35 19.35 0 0 1 370.145 45.383 A 23.303 23.303 0 0 1 370.117 44.239 L 370.117 17.09 L 355.273 17.09 L 355.273 19.532 L 362.793 19.532 L 362.793 42.774 Q 362.88 57.662 373.911 59.354 A 19.69 19.69 0 0 0 376.758 59.571 A 14.419 14.419 0 0 0 387.713 54.846 A 18.733 18.733 0 0 0 388.77 53.614 Q 390.527 51.368 391.602 48.633 L 392.285 58.594 L 406.055 58.594 A 4.699 4.699 0 0 0 405.99 57.775 Q 405.746 56.405 404.59 56.25 Q 404.298 56.178 403.898 56.159 A 6.178 6.178 0 0 0 403.613 56.153 Z M 336.23 49.024 L 336.133 68.848 A 9.915 9.915 0 0 1 335.977 70.68 Q 335.795 71.648 335.398 72.365 A 3.695 3.695 0 0 1 333.301 74.122 A 8.51 8.51 0 0 1 332.202 74.378 Q 330.34 74.7 327.007 74.707 A 70.753 70.753 0 0 1 326.855 74.707 L 326.855 77.149 L 350.879 77.149 A 4.699 4.699 0 0 0 350.814 76.329 Q 350.57 74.959 349.414 74.805 Q 349.123 74.732 348.722 74.714 A 6.178 6.178 0 0 0 348.437 74.707 L 343.457 74.707 L 343.457 19.532 L 350.781 19.532 L 350.781 17.09 L 337.109 17.09 L 336.621 21.289 A 18.318 18.318 0 0 0 324.233 16.134 A 24.039 24.039 0 0 0 323.242 16.114 Q 314.16 16.114 308.496 23.145 A 22.593 22.593 0 0 0 304.291 32.192 Q 303.54 35.477 303.516 39.304 A 40.346 40.346 0 0 0 303.516 39.551 A 28.704 28.704 0 0 0 304.221 46.139 Q 305.292 50.679 307.988 53.832 A 16.706 16.706 0 0 0 311.523 56.934 A 15.977 15.977 0 0 0 320.508 59.571 A 17.073 17.073 0 0 0 327.56 58.153 Q 331.398 56.436 334.18 52.637 A 28.521 28.521 0 0 0 336.23 49.024 Z M 487.5 15.528 L 487.5 27.735 L 484.961 27.735 Q 484.808 20.689 478.768 19.108 A 15.539 15.539 0 0 0 475 18.653 A 19.05 19.05 0 0 0 471.884 18.887 Q 470.299 19.151 469.099 19.712 A 6.038 6.038 0 0 0 465.918 22.95 A 6.287 6.287 0 0 0 465.43 25.391 Q 465.43 28.614 468.996 31.089 A 18.492 18.492 0 0 0 471.484 32.52 A 25.805 25.805 0 0 0 472.266 32.892 Q 473.584 33.497 475.781 34.375 A 67.61 67.61 0 0 1 479.407 35.968 Q 484.351 38.33 486.328 40.528 A 10.681 10.681 0 0 1 489.16 47.95 Q 489.16 54.116 484.057 57.078 A 16.241 16.241 0 0 1 480.762 58.497 A 21.055 21.055 0 0 1 475.826 59.486 A 25.362 25.362 0 0 1 473.73 59.571 Q 466.699 59.473 461.523 56.055 A 7.784 7.784 0 0 1 461.471 56.998 Q 461.266 58.674 460.254 58.985 Q 459.668 59.082 458.887 59.082 L 458.887 44.239 L 461.621 44.239 A 21.648 21.648 0 0 0 462.173 48.997 Q 463.789 55.648 470.107 56.726 A 15.416 15.416 0 0 0 472.559 56.934 A 17.142 17.142 0 0 0 475.785 56.653 Q 479.91 55.861 481.641 52.832 Q 482.52 51.368 482.52 49.61 A 5.757 5.757 0 0 0 481.076 45.856 Q 479.599 44.08 476.607 42.601 A 23.826 23.826 0 0 0 476.562 42.579 Q 475.34 41.92 472.58 40.719 A 161.457 161.457 0 0 0 472.363 40.625 Q 464.355 37.305 461.719 34.375 A 11.037 11.037 0 0 1 458.887 26.856 Q 458.887 21.598 463.405 18.778 A 15.766 15.766 0 0 1 466.309 17.383 A 20.528 20.528 0 0 1 472.128 16.166 A 24.19 24.19 0 0 1 473.73 16.114 A 25.545 25.545 0 0 1 479.211 16.675 A 19.377 19.377 0 0 1 484.863 18.848 Q 484.863 16.016 486.23 15.625 A 7.146 7.146 0 0 1 487.001 15.541 A 8.832 8.832 0 0 1 487.5 15.528 Z M 495.02 17.09 L 495.02 19.532 L 501.855 19.532 L 501.855 47.071 A 20.944 20.944 0 0 0 502.649 51.921 Q 504.887 59.365 513.086 59.668 A 10.724 10.724 0 0 0 518.414 58.394 Q 522.834 55.918 524.316 48.633 L 524.316 48.438 L 521.68 47.95 A 25.594 25.594 0 0 1 520.458 51.241 Q 518.838 54.769 516.541 56.059 A 5.719 5.719 0 0 1 514.551 56.739 A 5.359 5.359 0 0 1 511.847 55.976 Q 509.248 54.34 509.18 49.219 L 509.18 19.532 L 524.316 19.532 L 524.316 17.09 L 509.18 17.09 L 509.18 5.762 L 501.855 7.813 L 501.855 17.09 L 495.02 17.09 Z M 104.688 49.219 L 102.246 48.34 A 16.157 16.157 0 0 1 99.286 52.802 Q 96.133 56.096 91.249 56.734 A 17.012 17.012 0 0 1 91.211 56.739 A 19.673 19.673 0 0 1 89.914 56.827 A 16.666 16.666 0 0 1 89.355 56.836 Q 79.102 56.836 76.465 44.629 A 34.366 34.366 0 0 1 75.778 40.329 A 43.59 43.59 0 0 1 75.586 37.11 L 87.305 37.305 Q 98.633 37.491 102.28 35.293 A 5.481 5.481 0 0 0 102.637 35.059 A 6.318 6.318 0 0 0 105.227 30.423 A 9.062 9.062 0 0 0 105.273 29.493 Q 105.273 22.852 98.535 18.946 A 20.329 20.329 0 0 0 90.349 16.269 A 25.505 25.505 0 0 0 87.5 16.114 Q 75.614 16.114 70.302 25.742 A 23.701 23.701 0 0 0 70.02 26.27 A 24.453 24.453 0 0 0 67.435 35.146 A 30.101 30.101 0 0 0 67.285 38.184 A 26.612 26.612 0 0 0 68.221 45.458 A 18.662 18.662 0 0 0 75.977 56.153 A 20.749 20.749 0 0 0 86.866 59.554 A 25.222 25.222 0 0 0 87.793 59.571 A 22.961 22.961 0 0 0 94.047 58.77 A 15.911 15.911 0 0 0 103.32 51.954 A 26.908 26.908 0 0 0 104.613 49.39 A 24.774 24.774 0 0 0 104.687 49.219 Z M 295.605 49.219 L 293.164 48.34 A 16.157 16.157 0 0 1 290.203 52.802 Q 287.051 56.096 282.167 56.734 A 17.012 17.012 0 0 1 282.129 56.739 A 19.673 19.673 0 0 1 280.832 56.827 A 16.666 16.666 0 0 1 280.273 56.836 Q 270.02 56.836 267.383 44.629 A 34.366 34.366 0 0 1 266.696 40.329 A 43.59 43.59 0 0 1 266.504 37.11 L 278.223 37.305 Q 289.551 37.491 293.198 35.293 A 5.481 5.481 0 0 0 293.555 35.059 A 6.318 6.318 0 0 0 296.145 30.423 A 9.062 9.062 0 0 0 296.191 29.493 Q 296.191 22.852 289.453 18.946 A 20.329 20.329 0 0 0 281.267 16.269 A 25.505 25.505 0 0 0 278.418 16.114 Q 266.532 16.114 261.22 25.742 A 23.701 23.701 0 0 0 260.938 26.27 A 24.453 24.453 0 0 0 258.353 35.146 A 30.101 30.101 0 0 0 258.203 38.184 A 26.612 26.612 0 0 0 259.139 45.458 A 18.662 18.662 0 0 0 266.895 56.153 A 20.749 20.749 0 0 0 277.784 59.554 A 25.222 25.222 0 0 0 278.711 59.571 A 22.961 22.961 0 0 0 284.965 58.77 A 15.911 15.911 0 0 0 294.238 51.954 A 26.908 26.908 0 0 0 295.531 49.39 A 24.774 24.774 0 0 0 295.605 49.219 Z M 450 49.219 L 447.559 48.34 A 16.157 16.157 0 0 1 444.598 52.802 Q 441.445 56.096 436.562 56.734 A 17.012 17.012 0 0 1 436.523 56.739 A 19.673 19.673 0 0 1 435.227 56.827 A 16.666 16.666 0 0 1 434.668 56.836 Q 424.414 56.836 421.777 44.629 A 34.366 34.366 0 0 1 421.091 40.329 A 43.59 43.59 0 0 1 420.898 37.11 L 432.617 37.305 Q 443.945 37.491 447.593 35.293 A 5.481 5.481 0 0 0 447.949 35.059 A 6.318 6.318 0 0 0 450.539 30.423 A 9.062 9.062 0 0 0 450.586 29.493 Q 450.586 22.852 443.848 18.946 A 20.329 20.329 0 0 0 435.662 16.269 A 25.505 25.505 0 0 0 432.813 16.114 Q 420.927 16.114 415.614 25.742 A 23.701 23.701 0 0 0 415.332 26.27 A 24.453 24.453 0 0 0 412.748 35.146 A 30.101 30.101 0 0 0 412.598 38.184 A 26.612 26.612 0 0 0 413.533 45.458 A 18.662 18.662 0 0 0 421.289 56.153 A 20.749 20.749 0 0 0 432.179 59.554 A 25.222 25.222 0 0 0 433.105 59.571 A 22.961 22.961 0 0 0 439.359 58.77 A 15.911 15.911 0 0 0 448.633 51.954 A 26.908 26.908 0 0 0 449.926 49.39 A 24.774 24.774 0 0 0 450 49.219 Z M 335.791 42.157 A 40.618 40.618 0 0 0 336.23 35.938 A 42.732 42.732 0 0 0 336.137 33.059 A 32.921 32.921 0 0 0 335.742 29.688 Q 334.346 22.11 329.648 19.69 A 11.069 11.069 0 0 0 324.512 18.555 A 12.868 12.868 0 0 0 323.522 18.593 A 10.597 10.597 0 0 0 319.238 19.825 Q 313.556 22.89 312.224 31.795 A 40.705 40.705 0 0 0 311.816 37.793 A 46.25 46.25 0 0 0 311.82 38.335 Q 311.842 40.217 312.018 41.906 A 28.012 28.012 0 0 0 312.598 45.411 A 25.289 25.289 0 0 0 312.819 46.305 Q 314.41 52.259 318.274 54.425 A 10.384 10.384 0 0 0 323.437 55.664 A 10.605 10.605 0 0 0 329.199 54.004 Q 334.473 50.635 335.791 42.157 Z M 214.648 2.539 L 224.414 2.539 A 15.894 15.894 0 0 1 228.998 3.158 A 11.067 11.067 0 0 1 236.035 9.375 Q 237.305 12.207 237.305 15.332 A 16.212 16.212 0 0 1 236.646 20.075 A 12.405 12.405 0 0 1 232.422 26.27 A 12.047 12.047 0 0 1 224.707 28.907 L 214.648 28.907 L 214.648 2.539 Z M 85.938 34.668 L 75.586 34.375 A 29.391 29.391 0 0 1 76.227 29.248 Q 77.783 22.29 82.91 19.727 A 10.198 10.198 0 0 1 87.695 18.555 Q 94.454 18.555 96.726 24.188 A 11.889 11.889 0 0 1 96.777 24.317 A 10.13 10.13 0 0 1 97.555 28.02 A 11.651 11.651 0 0 1 97.559 28.321 Q 97.559 33.204 92.871 34.278 A 16.882 16.882 0 0 1 91.46 34.492 Q 89.26 34.741 85.938 34.668 Z M 276.855 34.668 L 266.504 34.375 A 29.391 29.391 0 0 1 267.145 29.248 Q 268.701 22.29 273.828 19.727 A 10.198 10.198 0 0 1 278.613 18.555 Q 285.372 18.555 287.644 24.188 A 11.889 11.889 0 0 1 287.695 24.317 A 10.13 10.13 0 0 1 288.473 28.02 A 11.651 11.651 0 0 1 288.477 28.321 Q 288.477 33.204 283.789 34.278 A 16.882 16.882 0 0 1 282.378 34.492 Q 280.178 34.741 276.855 34.668 Z M 431.25 34.668 L 420.898 34.375 A 29.391 29.391 0 0 1 421.539 29.248 Q 423.096 22.29 428.223 19.727 A 10.198 10.198 0 0 1 433.008 18.555 Q 439.767 18.555 442.039 24.188 A 11.889 11.889 0 0 1 442.09 24.317 A 10.13 10.13 0 0 1 442.867 28.02 A 11.651 11.651 0 0 1 442.871 28.321 Q 442.871 33.204 438.184 34.278 A 16.882 16.882 0 0 1 436.773 34.492 Q 434.572 34.741 431.25 34.668 Z" vector-effect="non-scaling-stroke"/></g></svg> -->
<svg width="524.316" height="77.149" viewBox="0 0 524.316 77.149" xmlns="http://www.w3.org/2000/svg"><g id="svgGroup" stroke-linecap="round" fill-rule="evenodd" font-size="9pt" stroke="#000000" stroke-width="0.25mm" fill="#000000" style="stroke:#000000;stroke-width:0.25mm;fill:#000000"><path d="M 42.383 0 L 42.383 2.539 L 50.684 2.539 L 50.684 46.289 L 13.574 0 L 0 0 L 0 2.539 L 7.813 2.539 L 7.813 56.055 L 0 56.055 L 0 58.594 L 20.02 58.594 A 4.438 4.438 0 0 0 19.945 57.743 Q 19.854 57.28 19.653 56.948 A 1.689 1.689 0 0 0 18.457 56.153 Q 17.969 56.055 17.48 56.055 L 11.719 56.055 L 11.719 10.84 L 50.098 59.082 L 54.59 58.106 L 54.59 2.539 L 62.402 2.539 L 62.402 0 L 42.383 0 Z M 121.289 19.532 L 128.613 19.532 L 128.613 17.09 L 109.277 17.09 L 109.277 19.532 L 113.672 19.532 L 125.879 52.247 Q 127.93 57.813 130.078 58.692 Q 130.963 59.014 132.179 59.07 A 11.503 11.503 0 0 0 132.715 59.082 L 134.668 59.082 L 143.164 33.497 L 149.707 52.247 Q 151.418 57.288 153.211 58.512 A 2.62 2.62 0 0 0 153.516 58.692 Q 154.179 58.957 155.159 59.042 A 11.519 11.519 0 0 0 156.152 59.082 L 157.715 59.082 L 169.531 23.047 A 13.268 13.268 0 0 1 169.977 21.849 Q 170.807 19.934 171.875 19.629 A 4.931 4.931 0 0 1 172.455 19.55 A 6.304 6.304 0 0 1 172.949 19.532 Q 173.931 19.532 174.526 19.246 A 1.497 1.497 0 0 0 175.391 18.164 A 4.931 4.931 0 0 0 175.47 17.584 A 6.304 6.304 0 0 0 175.488 17.09 L 161.035 17.09 L 161.035 19.532 L 167.871 19.532 L 157.031 53.223 L 145.605 19.532 L 152.441 19.532 L 152.441 17.09 L 137.402 17.09 L 141.797 29.493 L 133.691 53.516 L 121.289 19.532 Z M 198.438 58.594 L 222.363 58.594 L 222.363 56.055 L 214.648 56.055 L 214.648 31.739 L 223.926 31.739 L 239.551 58.594 L 254.297 58.594 A 6.008 6.008 0 0 0 254.249 57.798 Q 254.059 56.386 253.125 56.153 Q 252.637 56.055 251.953 56.055 L 248.242 56.055 L 232.52 30.86 A 22.694 22.694 0 0 0 238.205 28.704 A 16.103 16.103 0 0 0 245.215 21.192 A 14.914 14.914 0 0 0 246.479 15.613 A 14.399 14.399 0 0 0 246.484 15.235 A 13.279 13.279 0 0 0 241.965 4.961 A 17.858 17.858 0 0 0 240.137 3.516 A 19.861 19.861 0 0 0 232.766 0.505 A 27.755 27.755 0 0 0 227.344 0 L 198.438 0 L 198.438 2.539 L 206.25 2.539 L 206.25 56.055 L 198.438 56.055 L 198.438 58.594 Z M 403.613 56.153 L 398.73 56.153 L 398.73 17.09 L 383.398 17.09 L 383.398 19.532 L 391.406 19.532 L 391.406 40.625 A 19.81 19.81 0 0 1 390.805 45.661 A 13.119 13.119 0 0 1 385.254 53.516 A 11.158 11.158 0 0 1 382.515 54.893 A 9.205 9.205 0 0 1 379.59 55.372 A 11.494 11.494 0 0 1 375.909 54.826 Q 372.35 53.626 370.962 49.784 A 13.989 13.989 0 0 1 370.312 47.168 A 19.35 19.35 0 0 1 370.145 45.383 A 23.303 23.303 0 0 1 370.117 44.239 L 370.117 17.09 L 355.273 17.09 L 355.273 19.532 L 362.793 19.532 L 362.793 42.774 Q 362.88 57.662 373.911 59.354 A 19.69 19.69 0 0 0 376.758 59.571 A 14.419 14.419 0 0 0 387.713 54.846 A 18.733 18.733 0 0 0 388.77 53.614 Q 390.527 51.368 391.602 48.633 L 392.285 58.594 L 406.055 58.594 A 4.699 4.699 0 0 0 405.99 57.775 Q 405.746 56.405 404.59 56.25 Q 404.298 56.178 403.898 56.159 A 6.178 6.178 0 0 0 403.613 56.153 Z M 336.23 49.024 L 336.133 68.848 A 9.915 9.915 0 0 1 335.977 70.68 Q 335.795 71.648 335.398 72.365 A 3.695 3.695 0 0 1 333.301 74.122 A 8.51 8.51 0 0 1 332.202 74.378 Q 330.34 74.7 327.007 74.707 A 70.753 70.753 0 0 1 326.855 74.707 L 326.855 77.149 L 350.879 77.149 A 4.699 4.699 0 0 0 350.814 76.329 Q 350.57 74.959 349.414 74.805 Q 349.123 74.732 348.722 74.714 A 6.178 6.178 0 0 0 348.437 74.707 L 343.457 74.707 L 343.457 19.532 L 350.781 19.532 L 350.781 17.09 L 337.109 17.09 L 336.621 21.289 A 18.318 18.318 0 0 0 324.233 16.134 A 24.039 24.039 0 0 0 323.242 16.114 Q 314.16 16.114 308.496 23.145 A 22.593 22.593 0 0 0 304.291 32.192 Q 303.54 35.477 303.516 39.304 A 40.346 40.346 0 0 0 303.516 39.551 A 28.704 28.704 0 0 0 304.221 46.139 Q 305.292 50.679 307.988 53.832 A 16.706 16.706 0 0 0 311.523 56.934 A 15.977 15.977 0 0 0 320.508 59.571 A 17.073 17.073 0 0 0 327.56 58.153 Q 331.398 56.436 334.18 52.637 A 28.521 28.521 0 0 0 336.23 49.024 Z M 487.5 15.528 L 487.5 27.735 L 484.961 27.735 Q 484.808 20.689 478.768 19.108 A 15.539 15.539 0 0 0 475 18.653 A 19.05 19.05 0 0 0 471.884 18.887 Q 470.299 19.151 469.099 19.712 A 6.038 6.038 0 0 0 465.918 22.95 A 6.287 6.287 0 0 0 465.43 25.391 Q 465.43 28.614 468.996 31.089 A 18.492 18.492 0 0 0 471.484 32.52 A 25.805 25.805 0 0 0 472.266 32.892 Q 473.584 33.497 475.781 34.375 A 67.61 67.61 0 0 1 479.407 35.968 Q 484.351 38.33 486.328 40.528 A 10.681 10.681 0 0 1 489.16 47.95 Q 489.16 54.116 484.057 57.078 A 16.241 16.241 0 0 1 480.762 58.497 A 21.055 21.055 0 0 1 475.826 59.486 A 25.362 25.362 0 0 1 473.73 59.571 Q 466.699 59.473 461.523 56.055 A 7.784 7.784 0 0 1 461.471 56.998 Q 461.266 58.674 460.254 58.985 Q 459.668 59.082 458.887 59.082 L 458.887 44.239 L 461.621 44.239 A 21.648 21.648 0 0 0 462.173 48.997 Q 463.789 55.648 470.107 56.726 A 15.416 15.416 0 0 0 472.559 56.934 A 17.142 17.142 0 0 0 475.785 56.653 Q 479.91 55.861 481.641 52.832 Q 482.52 51.368 482.52 49.61 A 5.757 5.757 0 0 0 481.076 45.856 Q 479.599 44.08 476.607 42.601 A 23.826 23.826 0 0 0 476.562 42.579 Q 475.34 41.92 472.58 40.719 A 161.457 161.457 0 0 0 472.363 40.625 Q 464.355 37.305 461.719 34.375 A 11.037 11.037 0 0 1 458.887 26.856 Q 458.887 21.598 463.405 18.778 A 15.766 15.766 0 0 1 466.309 17.383 A 20.528 20.528 0 0 1 472.128 16.166 A 24.19 24.19 0 0 1 473.73 16.114 A 25.545 25.545 0 0 1 479.211 16.675 A 19.377 19.377 0 0 1 484.863 18.848 Q 484.863 16.016 486.23 15.625 A 7.146 7.146 0 0 1 487.001 15.541 A 8.832 8.832 0 0 1 487.5 15.528 Z M 495.02 17.09 L 495.02 19.532 L 501.855 19.532 L 501.855 47.071 A 20.944 20.944 0 0 0 502.649 51.921 Q 504.887 59.365 513.086 59.668 A 10.724 10.724 0 0 0 518.414 58.394 Q 522.834 55.918 524.316 48.633 L 524.316 48.438 L 521.68 47.95 A 25.594 25.594 0 0 1 520.458 51.241 Q 518.838 54.769 516.541 56.059 A 5.719 5.719 0 0 1 514.551 56.739 A 5.359 5.359 0 0 1 511.847 55.976 Q 509.248 54.34 509.18 49.219 L 509.18 19.532 L 524.316 19.532 L 524.316 17.09 L 509.18 17.09 L 509.18 5.762 L 501.855 7.813 L 501.855 17.09 L 495.02 17.09 Z M 104.688 49.219 L 102.246 48.34 A 16.157 16.157 0 0 1 99.286 52.802 Q 96.133 56.096 91.249 56.734 A 17.012 17.012 0 0 1 91.211 56.739 A 19.673 19.673 0 0 1 89.914 56.827 A 16.666 16.666 0 0 1 89.355 56.836 Q 79.102 56.836 76.465 44.629 A 34.366 34.366 0 0 1 75.778 40.329 A 43.59 43.59 0 0 1 75.586 37.11 L 87.305 37.305 Q 98.633 37.491 102.28 35.293 A 5.481 5.481 0 0 0 102.637 35.059 A 6.318 6.318 0 0 0 105.227 30.423 A 9.062 9.062 0 0 0 105.273 29.493 Q 105.273 22.852 98.535 18.946 A 20.329 20.329 0 0 0 90.349 16.269 A 25.505 25.505 0 0 0 87.5 16.114 Q 75.614 16.114 70.302 25.742 A 23.701 23.701 0 0 0 70.02 26.27 A 24.453 24.453 0 0 0 67.435 35.146 A 30.101 30.101 0 0 0 67.285 38.184 A 26.612 26.612 0 0 0 68.221 45.458 A 18.662 18.662 0 0 0 75.977 56.153 A 20.749 20.749 0 0 0 86.866 59.554 A 25.222 25.222 0 0 0 87.793 59.571 A 22.961 22.961 0 0 0 94.047 58.77 A 15.911 15.911 0 0 0 103.32 51.954 A 26.908 26.908 0 0 0 104.613 49.39 A 24.774 24.774 0 0 0 104.687 49.219 Z M 295.605 49.219 L 293.164 48.34 A 16.157 16.157 0 0 1 290.203 52.802 Q 287.051 56.096 282.167 56.734 A 17.012 17.012 0 0 1 282.129 56.739 A 19.673 19.673 0 0 1 280.832 56.827 A 16.666 16.666 0 0 1 280.273 56.836 Q 270.02 56.836 267.383 44.629 A 34.366 34.366 0 0 1 266.696 40.329 A 43.59 43.59 0 0 1 266.504 37.11 L 278.223 37.305 Q 289.551 37.491 293.198 35.293 A 5.481 5.481 0 0 0 293.555 35.059 A 6.318 6.318 0 0 0 296.145 30.423 A 9.062 9.062 0 0 0 296.191 29.493 Q 296.191 22.852 289.453 18.946 A 20.329 20.329 0 0 0 281.267 16.269 A 25.505 25.505 0 0 0 278.418 16.114 Q 266.532 16.114 261.22 25.742 A 23.701 23.701 0 0 0 260.938 26.27 A 24.453 24.453 0 0 0 258.353 35.146 A 30.101 30.101 0 0 0 258.203 38.184 A 26.612 26.612 0 0 0 259.139 45.458 A 18.662 18.662 0 0 0 266.895 56.153 A 20.749 20.749 0 0 0 277.784 59.554 A 25.222 25.222 0 0 0 278.711 59.571 A 22.961 22.961 0 0 0 284.965 58.77 A 15.911 15.911 0 0 0 294.238 51.954 A 26.908 26.908 0 0 0 295.531 49.39 A 24.774 24.774 0 0 0 295.605 49.219 Z M 450 49.219 L 447.559 48.34 A 16.157 16.157 0 0 1 444.598 52.802 Q 441.445 56.096 436.562 56.734 A 17.012 17.012 0 0 1 436.523 56.739 A 19.673 19.673 0 0 1 435.227 56.827 A 16.666 16.666 0 0 1 434.668 56.836 Q 424.414 56.836 421.777 44.629 A 34.366 34.366 0 0 1 421.091 40.329 A 43.59 43.59 0 0 1 420.898 37.11 L 432.617 37.305 Q 443.945 37.491 447.593 35.293 A 5.481 5.481 0 0 0 447.949 35.059 A 6.318 6.318 0 0 0 450.539 30.423 A 9.062 9.062 0 0 0 450.586 29.493 Q 450.586 22.852 443.848 18.946 A 20.329 20.329 0 0 0 435.662 16.269 A 25.505 25.505 0 0 0 432.813 16.114 Q 420.927 16.114 415.614 25.742 A 23.701 23.701 0 0 0 415.332 26.27 A 24.453 24.453 0 0 0 412.748 35.146 A 30.101 30.101 0 0 0 412.598 38.184 A 26.612 26.612 0 0 0 413.533 45.458 A 18.662 18.662 0 0 0 421.289 56.153 A 20.749 20.749 0 0 0 432.179 59.554 A 25.222 25.222 0 0 0 433.105 59.571 A 22.961 22.961 0 0 0 439.359 58.77 A 15.911 15.911 0 0 0 448.633 51.954 A 26.908 26.908 0 0 0 449.926 49.39 A 24.774 24.774 0 0 0 450 49.219 Z M 335.791 42.157 A 40.618 40.618 0 0 0 336.23 35.938 A 42.732 42.732 0 0 0 336.137 33.059 A 32.921 32.921 0 0 0 335.742 29.688 Q 334.346 22.11 329.648 19.69 A 11.069 11.069 0 0 0 324.512 18.555 A 12.868 12.868 0 0 0 323.522 18.593 A 10.597 10.597 0 0 0 319.238 19.825 Q 313.556 22.89 312.224 31.795 A 40.705 40.705 0 0 0 311.816 37.793 A 46.25 46.25 0 0 0 311.82 38.335 Q 311.842 40.217 312.018 41.906 A 28.012 28.012 0 0 0 312.598 45.411 A 25.289 25.289 0 0 0 312.819 46.305 Q 314.41 52.259 318.274 54.425 A 10.384 10.384 0 0 0 323.437 55.664 A 10.605 10.605 0 0 0 329.199 54.004 Q 334.473 50.635 335.791 42.157 Z M 214.648 2.539 L 224.414 2.539 A 15.894 15.894 0 0 1 228.998 3.158 A 11.067 11.067 0 0 1 236.035 9.375 Q 237.305 12.207 237.305 15.332 A 16.212 16.212 0 0 1 236.646 20.075 A 12.405 12.405 0 0 1 232.422 26.27 A 12.047 12.047 0 0 1 224.707 28.907 L 214.648 28.907 L 214.648 2.539 Z M 85.938 34.668 L 75.586 34.375 A 29.391 29.391 0 0 1 76.227 29.248 Q 77.783 22.29 82.91 19.727 A 10.198 10.198 0 0 1 87.695 18.555 Q 94.454 18.555 96.726 24.188 A 11.889 11.889 0 0 1 96.777 24.317 A 10.13 10.13 0 0 1 97.555 28.02 A 11.651 11.651 0 0 1 97.559 28.321 Q 97.559 33.204 92.871 34.278 A 16.882 16.882 0 0 1 91.46 34.492 Q 89.26 34.741 85.938 34.668 Z M 276.855 34.668 L 266.504 34.375 A 29.391 29.391 0 0 1 267.145 29.248 Q 268.701 22.29 273.828 19.727 A 10.198 10.198 0 0 1 278.613 18.555 Q 285.372 18.555 287.644 24.188 A 11.889 11.889 0 0 1 287.695 24.317 A 10.13 10.13 0 0 1 288.473 28.02 A 11.651 11.651 0 0 1 288.477 28.321 Q 288.477 33.204 283.789 34.278 A 16.882 16.882 0 0 1 282.378 34.492 Q 280.178 34.741 276.855 34.668 Z M 431.25 34.668 L 420.898 34.375 A 29.391 29.391 0 0 1 421.539 29.248 Q 423.096 22.29 428.223 19.727 A 10.198 10.198 0 0 1 433.008 18.555 Q 439.767 18.555 442.039 24.188 A 11.889 11.889 0 0 1 442.09 24.317 A 10.13 10.13 0 0 1 442.867 28.02 A 11.651 11.651 0 0 1 442.871 28.321 Q 442.871 33.204 438.184 34.278 A 16.882 16.882 0 0 1 436.773 34.492 Q 434.572 34.741 431.25 34.668 Z" vector-effect="non-scaling-stroke"/></g></svg>
