<svg width="508.47895507812495px" height="112.39999999999999px" xmlns="http://www.w3.org/2000/svg" viewBox="-4.239477539062477 18.800000000000004 508.47895507812495 112.39999999999999" style="background: rgba(0, 0, 0, 0);" preserveAspectRatio="xMidYMid"><defs><filter id="editing-extrude-glow"><feFlood flood-color="#333333" result="flood-1"></feFlood><feMorphology operator="erode" radius="1" in="SourceAlpha" result="erode"></feMorphology><feComposite operator="in" in="flood-1" in2="erode" result="comp1"></feComposite><feConvolveMatrix order="3,3" divisor="1" in="comp1" result="convolve" kernelMatrix="0 0 0 1 1 1 0 0 0"></feConvolveMatrix><feOffset dx="-3" dy="0" in="convolve" result="extrude"></feOffset><feComposite operator="in" in="flood-1" in2="extrude" result="comp-extrude"></feComposite><feFlood flood-color="#000000" result="flood-2"></feFlood><feComposite operator="in" in="flood-2" in2="SourceAlpha" result="comp2"></feComposite><feMorphology operator="dilate" radius="1" in="comp2" result="dilate"></feMorphology><feOffset dx="-4.5" dy="0" in="dilate" result="offset"></feOffset><feGaussianBlur in="offset" stdDeviation="5.8" result="blur"></feGaussianBlur><feComponentTransfer in="blur" result="shadow"><feFuncA type="linear" slope="0.8" intercept="-0.2"></feFuncA></feComponentTransfer><feMerge><feMergeNode in="shadow"></feMergeNode><feMergeNode in="comp-extrude"></feMergeNode><feMergeNode in="SourceGraphic"></feMergeNode></feMerge></filter></defs><g filter="url(#editing-extrude-glow)"><g transform="translate(70.75064271688461, 100.17000389099121)"><path d="M6.96 0L0.58 0L7.54-38.28L20.01-38.28L29.06-11.95L33.87-38.28L40.31-38.22L33.23 0L19.95 0L11.60-25.35L6.96 0ZM65.25-9.80L65.25-9.80L65.25-9.80Q66.70-8.82 66.70-6.64L66.70-6.64L66.70-6.64Q66.70-4.47 65.60-3.07L65.60-3.07L65.60-3.07Q64.50-1.68 62.70-0.75L62.70-0.75L62.70-0.75Q58.99 1.16 54.98 1.16L54.98 1.16L54.98 1.16Q50.98 1.16 48.63 0.29L48.63 0.29L48.63 0.29Q46.28-0.58 44.72-2.20L44.72-2.20L44.72-2.20Q41.64-5.28 41.64-10.90L41.64-10.90L41.64-10.90Q41.64-19.66 46.40-25.00L46.40-25.00L46.40-25.00Q51.50-30.74 60.38-30.74L60.38-30.74L60.38-30.74Q65.89-30.74 68.61-28.42L68.61-28.42L68.61-28.42Q70.64-26.68 70.64-23.84L70.64-23.84L70.64-23.84Q70.64-13.63 53.01-13.63L53.01-13.63L53.01-13.63Q52.78-12.12 52.78-10.85L52.78-10.85L52.78-10.85Q52.78-8.18 53.97-7.16L53.97-7.16L53.97-7.16Q55.16-6.15 57.36-6.15L57.36-6.15L57.36-6.15Q59.57-6.15 61.92-7.16L61.92-7.16L61.92-7.16Q64.26-8.18 65.25-9.80ZM53.42-16.12L53.42-16.12L53.42-16.12Q57.54-16.12 59.91-18.68L59.91-18.68L59.91-18.68Q62.29-21.11 62.29-25.00L62.29-25.00L62.29-25.00Q62.29-26.33 61.80-27.06L61.80-27.06L61.80-27.06Q61.31-27.78 60.32-27.78L60.32-27.78L60.32-27.78Q59.33-27.78 58.49-27.41L58.49-27.41L58.49-27.41Q57.65-27.03 56.78-25.75L56.78-25.75L56.78-25.75Q54.64-22.85 53.42-16.12ZM115.88-9.69L115.88-9.69Q112.06-4.41 108.37-1.62L108.37-1.62L108.37-1.62Q104.69 1.16 100.89 1.16L100.89 1.16L100.89 1.16Q97.09 1.16 95.76 0.41L95.76 0.41L95.76-12.35L95.76-12.35Q92.45-3.54 86.54-0.12L86.54-0.12L86.54-0.12Q84.39 1.16 82.36 1.16L82.36 1.16L82.36 1.16Q78.47 1.16 76.79 0.41L76.79 0.41L76.79 0.41Q76.39-12.88 76.04-16.56L76.04-16.56L76.04-16.56Q75.69-20.24 75.40-22.50L75.40-22.50L75.40-22.50Q74.82-27.03 72.85-28.88L72.85-28.88L72.85-28.88Q75.34-30.74 78.82-30.74L78.82-30.74L78.82-30.74Q85.55-30.74 86.48-22.39L86.48-22.39L86.48-22.39Q86.71-20.42 86.71-18.33L86.71-18.33L86.71-18.33Q86.71-15.20 86.01-4.29L86.01-4.29L86.01-4.29Q87.41-4.93 88.88-7.22L88.88-7.22L88.88-7.22Q90.36-9.51 91.58-12.64L91.58-12.64L91.58-12.64Q94.31-19.89 94.31-26.16L94.31-26.16L94.31-26.16Q94.31-27.14 94.05-28.19L94.05-28.19L94.05-28.19Q93.79-29.23 93.50-29.52L93.50-29.52L93.50-29.52Q95.53-30.74 98.63-30.74L98.63-30.74L98.63-30.74Q101.73-30.74 103.21-28.62L103.21-28.62L103.21-28.62Q104.69-26.51 105.10-22.62L105.10-22.62L105.10-22.62Q105.56-17.69 105.56-14.73L105.56-14.73L105.56-14.73Q105.56-10.61 105.15-4.52L105.15-4.52L105.15-4.52Q108.05-6.61 110.43-13.46L110.43-13.46L110.43-13.46Q112.81-20.30 112.81-25.17L112.81-25.17L112.81-25.17Q112.81-27.32 112.46-28.59L112.46-28.59L112.46-28.59Q114.38-30.74 117.68-30.74L117.68-30.74L117.68-30.74Q119.71-30.74 121.19-29.64L121.19-29.64L121.19-29.64Q122.67-28.54 122.67-26.48L122.67-26.48L122.67-26.48Q122.67-24.42 122.06-22.21L122.06-22.21L122.06-22.21Q121.45-20.01 120.47-17.75L120.47-17.75L120.47-17.75Q118.55-13.22 115.88-9.69L115.88-9.69ZM148.07 0L135.66 0L142.74-38.11L142.74-38.11Q148.48-38.74 156.86-38.74L156.86-38.74L156.86-38.74Q165.24-38.74 169.13-36.31L169.13-36.31L169.13-36.31Q173.01-33.87 173.01-28.97L173.01-28.97L173.01-28.97Q173.01-24.07 170.49-21.00L170.49-21.00L170.49-21.00Q167.97-17.92 163.62-16.94L163.62-16.94L163.62-16.94Q164.60-12.12 166.87-8.24L166.87-8.24L166.87-8.24Q168.95-4.58 171.39-3.42L171.39-3.42L171.39-3.42Q170.52-0.99 168.75 0.09L168.75 0.09L168.75 0.09Q166.98 1.16 164.46 1.16L164.46 1.16L164.46 1.16Q161.94 1.16 159.96-0.32L159.96-0.32L159.96-0.32Q157.99-1.80 156.43-4.52L156.43-4.52L156.43-4.52Q153.12-10.44 152.77-19.78L152.77-19.78L153.18-19.78L153.18-19.78Q157.47-19.89 159.62-22.13L159.62-22.13L159.62-22.13Q161.76-24.36 161.76-29.06L161.76-29.06L161.76-29.06Q161.76-34.92 156.83-35.15L156.83-35.15L155.56-35.15L155.56-35.15Q155.03-35.15 154.74-35.09L154.74-35.09L148.07 0ZM199.17-9.80L199.17-9.80L199.17-9.80Q200.62-8.82 200.62-6.64L200.62-6.64L200.62-6.64Q200.62-4.47 199.52-3.07L199.52-3.07L199.52-3.07Q198.42-1.68 196.62-0.75L196.62-0.75L196.62-0.75Q192.91 1.16 188.91 1.16L188.91 1.16L188.91 1.16Q184.90 1.16 182.56 0.29L182.56 0.29L182.56 0.29Q180.21-0.58 178.64-2.20L178.64-2.20L178.64-2.20Q175.57-5.28 175.57-10.90L175.57-10.90L175.57-10.90Q175.57-19.66 180.32-25.00L180.32-25.00L180.32-25.00Q185.43-30.74 194.30-30.74L194.30-30.74L194.30-30.74Q199.81-30.74 202.54-28.42L202.54-28.42L202.54-28.42Q204.57-26.68 204.57-23.84L204.57-23.84L204.57-23.84Q204.57-13.63 186.93-13.63L186.93-13.63L186.93-13.63Q186.70-12.12 186.70-10.85L186.70-10.85L186.70-10.85Q186.70-8.18 187.89-7.16L187.89-7.16L187.89-7.16Q189.08-6.15 191.28-6.15L191.28-6.15L191.28-6.15Q193.49-6.15 195.84-7.16L195.84-7.16L195.84-7.16Q198.19-8.18 199.17-9.80ZM187.34-16.12L187.34-16.12L187.34-16.12Q191.46-16.12 193.84-18.68L193.84-18.68L193.84-18.68Q196.21-21.11 196.21-25.00L196.21-25.00L196.21-25.00Q196.21-26.33 195.72-27.06L195.72-27.06L195.72-27.06Q195.23-27.78 194.24-27.78L194.24-27.78L194.24-27.78Q193.26-27.78 192.42-27.41L192.42-27.41L192.42-27.41Q191.57-27.03 190.70-25.75L190.70-25.75L190.70-25.75Q188.56-22.85 187.34-16.12ZM220.57 11.60L223.01-0.17L223.01-0.17Q221.10 1.16 218.05 1.16L218.05 1.16L218.05 1.16Q215.01 1.16 212.77 0.46L212.77 0.46L212.77 0.46Q210.54-0.23 209.15-1.74L209.15-1.74L209.15-1.74Q206.48-4.64 206.48-11.43L206.48-11.43L206.48-11.43Q206.48-20.01 211.58-25.40L211.58-25.40L211.58-25.40Q216.57-30.74 224.81-30.74L224.81-30.74L224.81-30.74Q227.77-30.74 229.91-29.75L229.91-29.75L240.18-30.74L232.29 10.44L220.57 11.60ZM219.59-2.44L219.59-2.44L219.59-2.44Q221.39-2.44 222.72-4.26L222.72-4.26L222.72-4.26Q224.05-6.09 224.63-9.22L224.63-9.22L227.71-26.22L227.71-26.22Q226.49-27.26 225.07-27.26L225.07-27.26L225.07-27.26Q223.65-27.26 222.81-26.80L222.81-26.80L222.81-26.80Q221.97-26.33 221.33-25.29L221.33-25.29L221.33-25.29Q219.65-22.56 218.31-14.67L218.31-14.67L218.31-14.67Q217.56-9.98 217.56-6.21L217.56-6.21L217.56-6.21Q217.56-2.44 219.59-2.44ZM260.94-2.44L260.94-2.44L260.94-2.44Q258.16 1.16 251.26 1.16L251.26 1.16L251.26 1.16Q247.66 1.16 245.05-1.02L245.05-1.02L245.05-1.02Q242.44-3.19 242.44-6.32L242.44-6.32L242.44-6.32Q242.44-8.06 242.61-8.93L242.61-8.93L246.50-29.58L258.27-30.74L254.04-8.35L254.04-8.35Q253.81-7.08 253.81-6.32L253.81-6.32L253.81-6.32Q253.81-2.96 255.84-2.96L255.84-2.96L255.84-2.96Q258.10-2.96 259.72-6.03L259.72-6.03L259.72-6.03Q260.25-7.02 260.48-8.29L260.48-8.29L264.60-29.58L276.02-30.74L271.73-8.12L271.73-8.12Q271.56-7.25 271.56-6.32L271.56-6.32L271.56-6.32Q271.56-5.39 272.08-4.38L272.08-4.38L272.08-4.38Q272.60-3.36 274.28-3.13L274.28-3.13L274.28-3.13Q273.93-1.74 272.72-0.81L272.72-0.81L272.72-0.81Q270.16 1.16 267.41 1.16L267.41 1.16L267.41 1.16Q264.65 1.16 263.03 0.17L263.03 0.17L263.03 0.17Q261.41-0.81 260.94-2.44ZM302.41-9.80L302.41-9.80L302.41-9.80Q303.86-8.82 303.86-6.64L303.86-6.64L303.86-6.64Q303.86-4.47 302.76-3.07L302.76-3.07L302.76-3.07Q301.66-1.68 299.86-0.75L299.86-0.75L299.86-0.75Q296.15 1.16 292.15 1.16L292.15 1.16L292.15 1.16Q288.14 1.16 285.79 0.29L285.79 0.29L285.79 0.29Q283.45-0.58 281.88-2.20L281.88-2.20L281.88-2.20Q278.81-5.28 278.81-10.90L278.81-10.90L278.81-10.90Q278.81-19.66 283.56-25.00L283.56-25.00L283.56-25.00Q288.67-30.74 297.54-30.74L297.54-30.74L297.54-30.74Q303.05-30.74 305.78-28.42L305.78-28.42L305.78-28.42Q307.81-26.68 307.81-23.84L307.81-23.84L307.81-23.84Q307.81-13.63 290.17-13.63L290.17-13.63L290.17-13.63Q289.94-12.12 289.94-10.85L289.94-10.85L289.94-10.85Q289.94-8.18 291.13-7.16L291.13-7.16L291.13-7.16Q292.32-6.15 294.52-6.15L294.52-6.15L294.52-6.15Q296.73-6.15 299.08-7.16L299.08-7.16L299.08-7.16Q301.43-8.18 302.41-9.80ZM290.58-16.12L290.58-16.12L290.58-16.12Q294.70-16.12 297.08-18.68L297.08-18.68L297.08-18.68Q299.45-21.11 299.45-25.00L299.45-25.00L299.45-25.00Q299.45-26.33 298.96-27.06L298.96-27.06L298.96-27.06Q298.47-27.78 297.48-27.78L297.48-27.78L297.48-27.78Q296.50-27.78 295.65-27.41L295.65-27.41L295.65-27.41Q294.81-27.03 293.94-25.75L293.94-25.75L293.94-25.75Q291.80-22.85 290.58-16.12ZM327.12-20.36L327.12-20.36L327.12-20.36Q327.93-22.50 327.93-24.36L327.93-24.36L327.93-24.36Q327.93-27.78 325.15-27.78L325.15-27.78L325.15-27.78Q323.70-27.78 322.51-26.48L322.51-26.48L322.51-26.48Q321.32-25.17 321.32-23.55L321.32-23.55L321.32-23.55Q321.32-22.39 322.25-21.46L322.25-21.46L322.25-21.46Q323.58-20.18 327.00-18.10L327.00-18.10L327.00-18.10Q330.43-16.01 331.73-14.30L331.73-14.30L331.73-14.30Q333.04-12.59 333.04-10.24L333.04-10.24L333.04-10.24Q333.04-7.89 331.90-5.74L331.90-5.74L331.90-5.74Q330.77-3.60 328.74-2.09L328.74-2.09L328.74-2.09Q324.39 1.16 317.43 1.16L317.43 1.16L317.43 1.16Q313.66 1.16 310.76-0.81L310.76-0.81L310.76-0.81Q307.86-2.73 307.86-4.99L307.86-4.99L307.86-4.99Q307.86-7.25 309.52-8.58L309.52-8.58L309.52-8.58Q311.17-9.92 313.61-9.92L313.61-9.92L313.61-9.92Q316.04-9.92 317.55-8.99L317.55-8.99L317.55-8.99Q316.80-7.08 316.80-5.80L316.80-5.80L316.80-5.80Q316.80-1.97 320.04-1.97L320.04-1.97L320.04-1.97Q321.44-1.97 322.36-2.84L322.36-2.84L322.36-2.84Q323.29-3.71 323.29-5.22L323.29-5.22L323.29-5.22Q323.29-8.18 318.30-11.31L318.30-11.31L318.30-11.31Q314.24-13.98 313.32-15.02L313.32-15.02L313.32-15.02Q311.75-16.88 311.75-19.20L311.75-19.20L311.75-19.20Q311.75-21.52 312.85-23.72L312.85-23.72L312.85-23.72Q313.95-25.93 315.98-27.49L315.98-27.49L315.98-27.49Q320.22-30.74 327.58-30.74L327.58-30.74L327.58-30.74Q331.35-30.74 333.59-29.23L333.59-29.23L333.59-29.23Q335.82-27.72 335.82-25.17L335.82-25.17L335.82-25.17Q335.82-22.62 334.28-21.17L334.28-21.17L334.28-21.17Q332.75-19.72 329.96-19.72L329.96-19.72L329.96-19.72Q328.05-19.72 327.12-20.36ZM338.89-5.80L338.89-5.80L338.89-5.80Q338.89-7.37 339.71-11.31L339.71-11.31L342.78-26.97L339.36-26.97L339.59-28.71L339.59-28.71Q346.55-30.80 353.28-35.90L353.28-35.90L356.06-35.90L354.67-29.58L359.19-29.58L358.67-26.97L354.21-26.97L351.25-11.31L351.25-11.31Q350.49-7.71 350.49-6.50L350.49-6.50L350.49-6.50Q350.49-3.71 352.93-3.13L352.93-3.13L352.93-3.13Q352.35-1.16 350.26 0L350.26 0L350.26 0Q348.17 1.16 345.22 1.16L345.22 1.16L345.22 1.16Q342.26 1.16 340.58-0.70L340.58-0.70L340.58-0.70Q338.89-2.55 338.89-5.80Z" fill="#4f97c4"></path></g></g><style>text {
  font-size: 64px;
  font-family: Arial Black;
  dominant-baseline: central;
  text-anchor: middle;
}</style></svg>