<svg width="626.4185058593749px" height="134px" xmlns="http://www.w3.org/2000/svg" viewBox="-63.209252929687466 8 626.4185058593749 134" style="background: rgba(0, 0, 0, 0);" preserveAspectRatio="xMidYMid"><defs><filter id="editing-extrude-glow"><feFlood flood-color="#333333" result="flood-1"></feFlood><feMorphology operator="erode" radius="1" in="SourceAlpha" result="erode"></feMorphology><feComposite operator="in" in="flood-1" in2="erode" result="comp1"></feComposite><feConvolveMatrix order="3,3" divisor="1" in="comp1" result="convolve" kernelMatrix="0 0 0 1 1 1 0 0 0"></feConvolveMatrix><feOffset dx="-3" dy="0" in="convolve" result="extrude"></feOffset><feComposite operator="in" in="flood-1" in2="extrude" result="comp-extrude"></feComposite><feFlood flood-color="#000000" result="flood-2"></feFlood><feComposite operator="in" in="flood-2" in2="SourceAlpha" result="comp2"></feComposite><feMorphology operator="dilate" radius="1" in="comp2" result="dilate"></feMorphology><feOffset dx="-4.5" dy="0" in="dilate" result="offset"></feOffset><feGaussianBlur in="offset" stdDeviation="5.8" result="blur"></feGaussianBlur><feComponentTransfer in="blur" result="shadow"><feFuncA type="linear" slope="0.8" intercept="-0.2"></feFuncA></feComponentTransfer><feMerge><feMergeNode in="shadow"></feMergeNode><feMergeNode in="comp-extrude"></feMergeNode><feMergeNode in="SourceGraphic"></feMergeNode></feMerge></filter></defs><g filter="url(#editing-extrude-glow)"><g transform="translate(27.47804194688797, 106.25000190734863)"><path d="M8.64 0L0.72 0L9.36-47.52L24.84-47.52L36.07-14.83L42.05-47.52L50.04-47.45L41.26 0L24.77 0L14.40-31.46L8.64 0ZM81.00-12.17L81.00-12.17L81.00-12.17Q82.80-10.94 82.80-8.24L82.80-8.24L82.80-8.24Q82.80-5.54 81.43-3.82L81.43-3.82L81.43-3.82Q80.06-2.09 77.83-0.94L77.83-0.94L77.83-0.94Q73.22 1.44 68.26 1.44L68.26 1.44L68.26 1.44Q63.29 1.44 60.37 0.36L60.37 0.36L60.37 0.36Q57.46-0.72 55.51-2.74L55.51-2.74L55.51-2.74Q51.70-6.55 51.70-13.54L51.70-13.54L51.70-13.54Q51.70-24.41 57.60-31.03L57.60-31.03L57.60-31.03Q63.94-38.16 74.95-38.16L74.95-38.16L74.95-38.16Q81.79-38.16 85.18-35.28L85.18-35.28L85.18-35.28Q87.70-33.12 87.70-29.59L87.70-29.59L87.70-29.59Q87.70-16.92 65.81-16.92L65.81-16.92L65.81-16.92Q65.52-15.05 65.52-13.46L65.52-13.46L65.52-13.46Q65.52-10.15 67.00-8.89L67.00-8.89L67.00-8.89Q68.47-7.63 71.21-7.63L71.21-7.63L71.21-7.63Q73.94-7.63 76.86-8.89L76.86-8.89L76.86-8.89Q79.78-10.15 81.00-12.17ZM66.31-20.02L66.31-20.02L66.31-20.02Q71.42-20.02 74.38-23.18L74.38-23.18L74.38-23.18Q77.33-26.21 77.33-31.03L77.33-31.03L77.33-31.03Q77.33-32.69 76.72-33.59L76.72-33.59L76.72-33.59Q76.10-34.49 74.88-34.49L74.88-34.49L74.88-34.49Q73.66-34.49 72.61-34.02L72.61-34.02L72.61-34.02Q71.57-33.55 70.49-31.97L70.49-31.97L70.49-31.97Q67.82-28.37 66.31-20.02ZM143.86-12.02L143.86-12.02Q139.10-5.47 134.53-2.02L134.53-2.02L134.53-2.02Q129.96 1.44 125.24 1.44L125.24 1.44L125.24 1.44Q120.53 1.44 118.87 0.50L118.87 0.50L118.87-15.34L118.87-15.34Q114.77-4.39 107.42-0.14L107.42-0.14L107.42-0.14Q104.76 1.44 102.24 1.44L102.24 1.44L102.24 1.44Q97.42 1.44 95.33 0.50L95.33 0.50L95.33 0.50Q94.82-15.98 94.39-20.56L94.39-20.56L94.39-20.56Q93.96-25.13 93.60-27.94L93.60-27.94L93.60-27.94Q92.88-33.55 90.43-35.86L90.43-35.86L90.43-35.86Q93.53-38.16 97.85-38.16L97.85-38.16L97.85-38.16Q106.20-38.16 107.35-27.79L107.35-27.79L107.35-27.79Q107.64-25.34 107.64-22.75L107.64-22.75L107.64-22.75Q107.64-18.86 106.78-5.33L106.78-5.33L106.78-5.33Q108.50-6.12 110.34-8.96L110.34-8.96L110.34-8.96Q112.18-11.81 113.69-15.70L113.69-15.70L113.69-15.70Q117.07-24.70 117.07-32.47L117.07-32.47L117.07-32.47Q117.07-33.70 116.75-34.99L116.75-34.99L116.75-34.99Q116.42-36.29 116.06-36.65L116.06-36.65L116.06-36.65Q118.58-38.16 122.44-38.16L122.44-38.16L122.44-38.16Q126.29-38.16 128.12-35.53L128.12-35.53L128.12-35.53Q129.96-32.90 130.46-28.08L130.46-28.08L130.46-28.08Q131.04-21.96 131.04-18.29L131.04-18.29L131.04-18.29Q131.04-13.18 130.54-5.62L130.54-5.62L130.54-5.62Q134.14-8.21 137.09-16.70L137.09-16.70L137.09-16.70Q140.04-25.20 140.04-31.25L140.04-31.25L140.04-31.25Q140.04-33.91 139.61-35.50L139.61-35.50L139.61-35.50Q141.98-38.16 146.09-38.16L146.09-38.16L146.09-38.16Q148.61-38.16 150.44-36.79L150.44-36.79L150.44-36.79Q152.28-35.42 152.28-32.87L152.28-32.87L152.28-32.87Q152.28-30.31 151.52-27.58L151.52-27.58L151.52-27.58Q150.77-24.84 149.54-22.03L149.54-22.03L149.54-22.03Q147.17-16.42 143.86-12.02L143.86-12.02ZM183.82 0L168.41 0L177.19-47.30L177.19-47.30Q184.32-48.10 194.72-48.10L194.72-48.10L194.72-48.10Q205.13-48.10 209.95-45.07L209.95-45.07L209.95-45.07Q214.78-42.05 214.78-35.96L214.78-35.96L214.78-35.96Q214.78-29.88 211.64-26.06L211.64-26.06L211.64-26.06Q208.51-22.25 203.11-21.02L203.11-21.02L203.11-21.02Q204.34-15.05 207.14-10.22L207.14-10.22L207.14-10.22Q209.74-5.69 212.76-4.25L212.76-4.25L212.76-4.25Q211.68-1.22 209.48 0.11L209.48 0.11L209.48 0.11Q207.29 1.44 204.16 1.44L204.16 1.44L204.16 1.44Q201.02 1.44 198.58-0.40L198.58-0.40L198.58-0.40Q196.13-2.23 194.18-5.62L194.18-5.62L194.18-5.62Q190.08-12.96 189.65-24.55L189.65-24.55L190.15-24.55L190.15-24.55Q195.48-24.70 198.14-27.47L198.14-27.47L198.14-27.47Q200.81-30.24 200.81-36.07L200.81-36.07L200.81-36.07Q200.81-43.34 194.69-43.63L194.69-43.63L193.10-43.63L193.10-43.63Q192.46-43.63 192.10-43.56L192.10-43.56L183.82 0ZM247.25-12.17L247.25-12.17L247.25-12.17Q249.05-10.94 249.05-8.24L249.05-8.24L249.05-8.24Q249.05-5.54 247.68-3.82L247.68-3.82L247.68-3.82Q246.31-2.09 244.08-0.94L244.08-0.94L244.08-0.94Q239.47 1.44 234.50 1.44L234.50 1.44L234.50 1.44Q229.54 1.44 226.62 0.36L226.62 0.36L226.62 0.36Q223.70-0.72 221.76-2.74L221.76-2.74L221.76-2.74Q217.94-6.55 217.94-13.54L217.94-13.54L217.94-13.54Q217.94-24.41 223.85-31.03L223.85-31.03L223.85-31.03Q230.18-38.16 241.20-38.16L241.20-38.16L241.20-38.16Q248.04-38.16 251.42-35.28L251.42-35.28L251.42-35.28Q253.94-33.12 253.94-29.59L253.94-29.59L253.94-29.59Q253.94-16.92 232.06-16.92L232.06-16.92L232.06-16.92Q231.77-15.05 231.77-13.46L231.77-13.46L231.77-13.46Q231.77-10.15 233.24-8.89L233.24-8.89L233.24-8.89Q234.72-7.63 237.46-7.63L237.46-7.63L237.46-7.63Q240.19-7.63 243.11-8.89L243.11-8.89L243.11-8.89Q246.02-10.15 247.25-12.17ZM232.56-20.02L232.56-20.02L232.56-20.02Q237.67-20.02 240.62-23.18L240.62-23.18L240.62-23.18Q243.58-26.21 243.58-31.03L243.58-31.03L243.58-31.03Q243.58-32.69 242.96-33.59L242.96-33.59L242.96-33.59Q242.35-34.49 241.13-34.49L241.13-34.49L241.13-34.49Q239.90-34.49 238.86-34.02L238.86-34.02L238.86-34.02Q237.82-33.55 236.74-31.97L236.74-31.97L236.74-31.97Q234.07-28.37 232.56-20.02ZM273.82 14.40L276.84-0.22L276.84-0.22Q274.46 1.44 270.68 1.44L270.68 1.44L270.68 1.44Q266.90 1.44 264.13 0.58L264.13 0.58L264.13 0.58Q261.36-0.29 259.63-2.16L259.63-2.16L259.63-2.16Q256.32-5.76 256.32-14.18L256.32-14.18L256.32-14.18Q256.32-24.84 262.66-31.54L262.66-31.54L262.66-31.54Q268.85-38.16 279.07-38.16L279.07-38.16L279.07-38.16Q282.74-38.16 285.41-36.94L285.41-36.94L298.15-38.16L288.36 12.96L273.82 14.40ZM272.59-3.02L272.59-3.02L272.59-3.02Q274.82-3.02 276.48-5.29L276.48-5.29L276.48-5.29Q278.14-7.56 278.86-11.45L278.86-11.45L282.67-32.54L282.67-32.54Q281.16-33.84 279.40-33.84L279.40-33.84L279.40-33.84Q277.63-33.84 276.59-33.26L276.59-33.26L276.59-33.26Q275.54-32.69 274.75-31.39L274.75-31.39L274.75-31.39Q272.66-28.01 271.01-18.22L271.01-18.22L271.01-18.22Q270.07-12.38 270.07-7.70L270.07-7.70L270.07-7.70Q270.07-3.02 272.59-3.02ZM323.93-3.02L323.93-3.02L323.93-3.02Q320.47 1.44 311.90 1.44L311.90 1.44L311.90 1.44Q307.44 1.44 304.20-1.26L304.20-1.26L304.20-1.26Q300.96-3.96 300.96-7.85L300.96-7.85L300.96-7.85Q300.96-10.01 301.18-11.09L301.18-11.09L306.00-36.72L320.62-38.16L315.36-10.37L315.36-10.37Q315.07-8.78 315.07-7.85L315.07-7.85L315.07-7.85Q315.07-3.67 317.59-3.67L317.59-3.67L317.59-3.67Q320.40-3.67 322.42-7.49L322.42-7.49L322.42-7.49Q323.06-8.71 323.35-10.30L323.35-10.30L328.46-36.72L342.65-38.16L337.32-10.08L337.32-10.08Q337.10-9.00 337.10-7.85L337.10-7.85L337.10-7.85Q337.10-6.70 337.75-5.44L337.75-5.44L337.75-5.44Q338.40-4.18 340.49-3.89L340.49-3.89L340.49-3.89Q340.06-2.16 338.54-1.01L338.54-1.01L338.54-1.01Q335.38 1.44 331.96 1.44L331.96 1.44L331.96 1.44Q328.54 1.44 326.52 0.22L326.52 0.22L326.52 0.22Q324.50-1.01 323.93-3.02ZM375.41-12.17L375.41-12.17L375.41-12.17Q377.21-10.94 377.21-8.24L377.21-8.24L377.21-8.24Q377.21-5.54 375.84-3.82L375.84-3.82L375.84-3.82Q374.47-2.09 372.24-0.94L372.24-0.94L372.24-0.94Q367.63 1.44 362.66 1.44L362.66 1.44L362.66 1.44Q357.70 1.44 354.78 0.36L354.78 0.36L354.78 0.36Q351.86-0.72 349.92-2.74L349.92-2.74L349.92-2.74Q346.10-6.55 346.10-13.54L346.10-13.54L346.10-13.54Q346.10-24.41 352.01-31.03L352.01-31.03L352.01-31.03Q358.34-38.16 369.36-38.16L369.36-38.16L369.36-38.16Q376.20-38.16 379.58-35.28L379.58-35.28L379.58-35.28Q382.10-33.12 382.10-29.59L382.10-29.59L382.10-29.59Q382.10-16.92 360.22-16.92L360.22-16.92L360.22-16.92Q359.93-15.05 359.93-13.46L359.93-13.46L359.93-13.46Q359.93-10.15 361.40-8.89L361.40-8.89L361.40-8.89Q362.88-7.63 365.62-7.63L365.62-7.63L365.62-7.63Q368.35-7.63 371.27-8.89L371.27-8.89L371.27-8.89Q374.18-10.15 375.41-12.17ZM360.72-20.02L360.72-20.02L360.72-20.02Q365.83-20.02 368.78-23.18L368.78-23.18L368.78-23.18Q371.74-26.21 371.74-31.03L371.74-31.03L371.74-31.03Q371.74-32.69 371.12-33.59L371.12-33.59L371.12-33.59Q370.51-34.49 369.29-34.49L369.29-34.49L369.29-34.49Q368.06-34.49 367.02-34.02L367.02-34.02L367.02-34.02Q365.98-33.55 364.90-31.97L364.90-31.97L364.90-31.97Q362.23-28.37 360.72-20.02ZM406.08-25.27L406.08-25.27L406.08-25.27Q407.09-27.94 407.09-30.24L407.09-30.24L407.09-30.24Q407.09-34.49 403.63-34.49L403.63-34.49L403.63-34.49Q401.83-34.49 400.36-32.87L400.36-32.87L400.36-32.87Q398.88-31.25 398.88-29.23L398.88-29.23L398.88-29.23Q398.88-27.79 400.03-26.64L400.03-26.64L400.03-26.64Q401.69-25.06 405.94-22.46L405.94-22.46L405.94-22.46Q410.18-19.87 411.80-17.75L411.80-17.75L411.80-17.75Q413.42-15.62 413.42-12.71L413.42-12.71L413.42-12.71Q413.42-9.79 412.02-7.13L412.02-7.13L412.02-7.13Q410.62-4.46 408.10-2.59L408.10-2.59L408.10-2.59Q402.70 1.44 394.06 1.44L394.06 1.44L394.06 1.44Q389.38 1.44 385.78-1.01L385.78-1.01L385.78-1.01Q382.18-3.38 382.18-6.19L382.18-6.19L382.18-6.19Q382.18-9.00 384.23-10.66L384.23-10.66L384.23-10.66Q386.28-12.31 389.30-12.31L389.30-12.31L389.30-12.31Q392.33-12.31 394.20-11.16L394.20-11.16L394.20-11.16Q393.26-8.78 393.26-7.20L393.26-7.20L393.26-7.20Q393.26-2.45 397.30-2.45L397.30-2.45L397.30-2.45Q399.02-2.45 400.18-3.53L400.18-3.53L400.18-3.53Q401.33-4.61 401.33-6.48L401.33-6.48L401.33-6.48Q401.33-10.15 395.14-14.04L395.14-14.04L395.14-14.04Q390.10-17.35 388.94-18.65L388.94-18.65L388.94-18.65Q387.00-20.95 387.00-23.83L387.00-23.83L387.00-23.83Q387.00-26.71 388.37-29.45L388.37-29.45L388.37-29.45Q389.74-32.18 392.26-34.13L392.26-34.13L392.26-34.13Q397.51-38.16 406.66-38.16L406.66-38.16L406.66-38.16Q411.34-38.16 414.11-36.29L414.11-36.29L414.11-36.29Q416.88-34.42 416.88-31.25L416.88-31.25L416.88-31.25Q416.88-28.08 414.97-26.28L414.97-26.28L414.97-26.28Q413.06-24.48 409.61-24.48L409.61-24.48L409.61-24.48Q407.23-24.48 406.08-25.27ZM420.70-7.20L420.70-7.20L420.70-7.20Q420.70-9.14 421.70-14.04L421.70-14.04L425.52-33.48L421.27-33.48L421.56-35.64L421.56-35.64Q430.20-38.23 438.55-44.57L438.55-44.57L442.01-44.57L440.28-36.72L445.90-36.72L445.25-33.48L439.70-33.48L436.03-14.04L436.03-14.04Q435.10-9.58 435.10-8.06L435.10-8.06L435.10-8.06Q435.10-4.61 438.12-3.89L438.12-3.89L438.12-3.89Q437.40-1.44 434.81 0L434.81 0L434.81 0Q432.22 1.44 428.54 1.44L428.54 1.44L428.54 1.44Q424.87 1.44 422.78-0.86L422.78-0.86L422.78-0.86Q420.70-3.17 420.70-7.20Z" fill="#eb6c6c"></path></g></g><style>text {
  font-size: 64px;
  font-family: Arial Black;
  dominant-baseline: central;
  text-anchor: middle;
}</style></svg>