<svg width="432.53749999999997px" height="112.39999999999999px" xmlns="http://www.w3.org/2000/svg" viewBox="33.73125000000002 18.800000000000004 432.53749999999997 112.39999999999999" style="background: rgba(0, 0, 0, 0);" preserveAspectRatio="xMidYMid"><defs><filter id="editing-extrude-glow"><feFlood flood-color="#333333" result="flood-1"></feFlood><feMorphology operator="erode" radius="1" in="SourceAlpha" result="erode"></feMorphology><feComposite operator="in" in="flood-1" in2="erode" result="comp1"></feComposite><feConvolveMatrix order="3,3" divisor="1" in="comp1" result="convolve" kernelMatrix="0 0 0 1 1 1 0 0 0"></feConvolveMatrix><feOffset dx="-3" dy="0" in="convolve" result="extrude"></feOffset><feComposite operator="in" in="flood-1" in2="extrude" result="comp-extrude"></feComposite><feFlood flood-color="#000000" result="flood-2"></feFlood><feComposite operator="in" in="flood-2" in2="SourceAlpha" result="comp2"></feComposite><feMorphology operator="dilate" radius="1" in="comp2" result="dilate"></feMorphology><feOffset dx="-4.5" dy="0" in="dilate" result="offset"></feOffset><feGaussianBlur in="offset" stdDeviation="5.8" result="blur"></feGaussianBlur><feComponentTransfer in="blur" result="shadow"><feFuncA type="linear" slope="0.8" intercept="-0.2"></feFuncA></feComponentTransfer><feMerge><feMergeNode in="shadow"></feMergeNode><feMergeNode in="comp-extrude"></feMergeNode><feMergeNode in="SourceGraphic"></feMergeNode></feMerge></filter></defs><g filter="url(#editing-extrude-glow)"><g transform="translate(96.61998891830444, 102)"><path d="M5.63-28.25L5.63-28.25L5.63-28.25Q3.65-29.75 3.65-32.97L3.65-32.97L3.65-32.97Q3.65-36.19 5.77-37.87L5.77-37.87L5.77-37.87Q7.89-39.56 11.54-39.56L11.54-39.56L11.54-39.56Q13.86-39.56 19.37-38.74L19.37-38.74L23.32-38.16L23.32-38.16Q25.29-37.93 27.35-37.93L27.35-37.93L27.35-37.93Q29.41-37.93 30.80-38.80L30.80-38.80L30.80-38.80Q32.89-36.95 32.89-34.28L32.89-34.28L32.89-34.28Q32.89-31.61 30.51-29.70L30.51-29.70L30.51-29.70Q28.07-27.67 24.94-27.67L24.94-27.67L24.94-27.67Q23.43-27.67 21.00-28.07L21.00-28.07L21.00-28.07Q18.15-19.14 18.15-12.93L18.15-12.93L18.15-12.93Q18.15-6.73 21.29-3.48L21.29-3.48L21.29-3.48Q19.84-0.87 17.69 0.15L17.69 0.15L17.69 0.15Q15.54 1.16 12.33 1.16L12.33 1.16L12.33 1.16Q9.11 1.16 7.11-0.61L7.11-0.61L7.11-0.61Q5.10-2.38 5.10-6.03L5.10-6.03L5.10-6.03Q5.10-10.27 7.42-17.23L7.42-17.23L7.42-17.23Q9.74-24.13 13.22-29.41L13.22-29.41L13.22-29.41Q11.54-29.58 9.80-29.58L9.80-29.58L9.80-29.58Q6.21-29.58 5.63-28.25ZM44.95-3.19L44.95-3.19L44.95-3.19Q43.15 1.16 37.41 1.16L37.41 1.16L37.41 1.16Q34.45 1.16 32.60-0.87L32.60-0.87L32.60-0.87Q31.03-2.67 31.03-4.47L31.03-4.47L31.03-4.47Q31.03-9.16 33.18-18.33L33.18-18.33L35.32-29.58L47.10-30.74L43.56-12.41L43.56-12.41Q42.57-8.12 42.57-6.61L42.57-6.61L42.57-6.61Q42.57-3.31 44.95-3.19ZM36.37-37.64L36.37-37.64L36.37-37.64Q36.37-39.90 38.25-41.12L38.25-41.12L38.25-41.12Q40.14-42.34 42.86-42.34L42.86-42.34L42.86-42.34Q45.59-42.34 47.24-41.12L47.24-41.12L47.24-41.12Q48.89-39.90 48.89-37.64L48.89-37.64L48.89-37.64Q48.89-35.38 47.07-34.22L47.07-34.22L47.07-34.22Q45.24-33.06 42.51-33.06L42.51-33.06L42.51-33.06Q39.79-33.06 38.08-34.22L38.08-34.22L38.08-34.22Q36.37-35.38 36.37-37.64ZM91.64 1.16L91.64 1.16L91.64 1.16Q84.62 1.16 84.62-4.29L84.62-4.29L84.62-4.29Q84.62-6.67 85.64-11.28L85.64-11.28L85.64-11.28Q86.65-15.89 87-17.75L87-17.75L87-17.75Q87.81-21.98 87.81-23.32L87.81-23.32L87.81-23.32Q87.81-26.27 85.61-26.27L85.61-26.27L85.61-26.27Q84.16-26.27 82.77-24.27L82.77-24.27L82.77-24.27Q81.37-22.27 80.74-18.27L80.74-18.27L77.14 0L65.83 1.16L68.96-14.62L68.96-14.62Q69.48-17.23 69.95-20.18L69.95-20.18L69.95-20.18Q70.41-23.14 70.41-23.61L70.41-23.61L70.41-23.61Q70.41-26.27 68.44-26.27L68.44-26.27L68.44-26.27Q67.11-26.27 65.66-24.30L65.66-24.30L65.66-24.30Q64.21-22.33 63.39-18.27L63.39-18.27L59.86 0L48.43 1.16L54.52-29.58L63.97-30.74L62.99-24.88L62.99-24.88Q64.50-28.01 67.28-29.38L67.28-29.38L67.28-29.38Q70.06-30.74 74.41-30.74L74.41-30.74L74.41-30.74Q76.91-30.74 78.53-29.52L78.53-29.52L78.53-29.52Q80.16-28.30 80.68-26.33L80.68-26.33L80.68-26.33Q81.66-28.36 84.19-29.55L84.19-29.55L84.19-29.55Q86.71-30.74 89.81-30.74L89.81-30.74L89.81-30.74Q92.92-30.74 94.45-30.07L94.45-30.07L94.45-30.07Q95.99-29.41 96.92-28.30L96.92-28.30L96.92-28.30Q98.48-26.27 98.48-22.56L98.48-22.56L98.48-22.56Q98.48-18.91 96.92-11.31L96.92-11.31L96.92-11.31Q96.11-7.60 96.11-6.24L96.11-6.24L96.11-6.24Q96.11-4.87 96.89-4.06L96.89-4.06L96.89-4.06Q97.67-3.25 98.83-3.13L98.83-3.13L98.83-3.13Q98.25-1.16 96.25 0L96.25 0L96.25 0Q94.25 1.16 91.64 1.16ZM126.79-9.80L126.79-9.80L126.79-9.80Q128.24-8.82 128.24-6.64L128.24-6.64L128.24-6.64Q128.24-4.47 127.14-3.07L127.14-3.07L127.14-3.07Q126.03-1.68 124.24-0.75L124.24-0.75L124.24-0.75Q120.52 1.16 116.52 1.16L116.52 1.16L116.52 1.16Q112.52 1.16 110.17 0.29L110.17 0.29L110.17 0.29Q107.82-0.58 106.26-2.20L106.26-2.20L106.26-2.20Q103.18-5.28 103.18-10.90L103.18-10.90L103.18-10.90Q103.18-19.66 107.94-25.00L107.94-25.00L107.94-25.00Q113.04-30.74 121.92-30.74L121.92-30.74L121.92-30.74Q127.43-30.74 130.15-28.42L130.15-28.42L130.15-28.42Q132.18-26.68 132.18-23.84L132.18-23.84L132.18-23.84Q132.18-13.63 114.55-13.63L114.55-13.63L114.55-13.63Q114.32-12.12 114.32-10.85L114.32-10.85L114.32-10.85Q114.32-8.18 115.51-7.16L115.51-7.16L115.51-7.16Q116.70-6.15 118.90-6.15L118.90-6.15L118.90-6.15Q121.10-6.15 123.45-7.16L123.45-7.16L123.45-7.16Q125.80-8.18 126.79-9.80ZM114.96-16.12L114.96-16.12L114.96-16.12Q119.07-16.12 121.45-18.68L121.45-18.68L121.45-18.68Q123.83-21.11 123.83-25.00L123.83-25.00L123.83-25.00Q123.83-26.33 123.34-27.06L123.34-27.06L123.34-27.06Q122.84-27.78 121.86-27.78L121.86-27.78L121.86-27.78Q120.87-27.78 120.03-27.41L120.03-27.41L120.03-27.41Q119.19-27.03 118.32-25.75L118.32-25.75L118.32-25.75Q116.17-22.85 114.96-16.12ZM171.56 1.16L171.56 1.16L171.56 1.16Q164.14 1.16 163.44-9.40L163.44-9.40L153.47-9.40L153.47-9.40Q152.31-6.73 151.50-4.41L151.50-4.41L149.99 0L141.87 0L160.14-38.28L172.61-38.28L175.04-10.09L175.04-10.09Q175.62-4.00 177.94-2.20L177.94-2.20L177.94-2.20Q176.26 1.16 171.56 1.16ZM158.46-21.00L155.27-13.63L163.27-13.63L162.57-28.54L162.57-30.10L158.46-21.00ZM224.58-9.69L224.58-9.69Q220.75-4.41 217.06-1.62L217.06-1.62L217.06-1.62Q213.38 1.16 209.58 1.16L209.58 1.16L209.58 1.16Q205.78 1.16 204.45 0.41L204.45 0.41L204.45-12.35L204.45-12.35Q201.14-3.54 195.23-0.12L195.23-0.12L195.23-0.12Q193.08 1.16 191.05 1.16L191.05 1.16L191.05 1.16Q187.17 1.16 185.48 0.41L185.48 0.41L185.48 0.41Q185.08-12.88 184.73-16.56L184.73-16.56L184.73-16.56Q184.38-20.24 184.09-22.50L184.09-22.50L184.09-22.50Q183.51-27.03 181.54-28.88L181.54-28.88L181.54-28.88Q184.03-30.74 187.51-30.74L187.51-30.74L187.51-30.74Q194.24-30.74 195.17-22.39L195.17-22.39L195.17-22.39Q195.40-20.42 195.40-18.33L195.40-18.33L195.40-18.33Q195.40-15.20 194.71-4.29L194.71-4.29L194.71-4.29Q196.10-4.93 197.58-7.22L197.58-7.22L197.58-7.22Q199.06-9.51 200.27-12.64L200.27-12.64L200.27-12.64Q203-19.89 203-26.16L203-26.16L203-26.16Q203-27.14 202.74-28.19L202.74-28.19L202.74-28.19Q202.48-29.23 202.19-29.52L202.19-29.52L202.19-29.52Q204.22-30.74 207.32-30.74L207.32-30.74L207.32-30.74Q210.42-30.74 211.90-28.62L211.90-28.62L211.90-28.62Q213.38-26.51 213.79-22.62L213.79-22.62L213.79-22.62Q214.25-17.69 214.25-14.73L214.25-14.73L214.25-14.73Q214.25-10.61 213.85-4.52L213.85-4.52L213.85-4.52Q216.75-6.61 219.12-13.46L219.12-13.46L219.12-13.46Q221.50-20.30 221.50-25.17L221.50-25.17L221.50-25.17Q221.50-27.32 221.15-28.59L221.15-28.59L221.15-28.59Q223.07-30.74 226.37-30.74L226.37-30.74L226.37-30.74Q228.40-30.74 229.88-29.64L229.88-29.64L229.88-29.64Q231.36-28.54 231.36-26.48L231.36-26.48L231.36-26.48Q231.36-24.42 230.75-22.21L230.75-22.21L230.75-22.21Q230.14-20.01 229.16-17.75L229.16-17.75L229.16-17.75Q227.24-13.22 224.58-9.69L224.58-9.69ZM235.45-1.74L235.45-1.74L235.45-1.74Q234.09-3.25 233.48-5.63L233.48-5.63L233.48-5.63Q232.87-8.00 232.87-11.89L232.87-11.89L232.87-11.89Q232.87-15.78 234.20-19.31L234.20-19.31L234.20-19.31Q235.54-22.85 237.97-25.40L237.97-25.40L237.97-25.40Q242.96-30.74 251.20-30.74L251.20-30.74L251.20-30.74Q254.16-30.74 256.30-29.75L256.30-29.75L266.22-30.74L261.93-8.12L261.93-8.12Q261.75-7.42 261.75-6.15L261.75-6.15L261.75-6.15Q261.75-4.87 262.54-4.06L262.54-4.06L262.54-4.06Q263.32-3.25 264.48-3.13L264.48-3.13L264.48-3.13Q263.90-1.16 261.78 0L261.78 0L261.78 0Q259.67 1.16 257.29 1.16L257.29 1.16L257.29 1.16Q254.91 1.16 253.31 0.26L253.31 0.26L253.31 0.26Q251.72-0.64 251.26-2.15L251.26-2.15L251.26-2.15Q250.33-0.70 248.36 0.23L248.36 0.23L248.36 0.23Q246.38 1.16 243.75 1.16L243.75 1.16L243.75 1.16Q241.11 1.16 238.96 0.46L238.96 0.46L238.96 0.46Q236.81-0.23 235.45-1.74ZM247.69-25.29L247.69-25.29L247.69-25.29Q247.02-24.24 246.44-22.48L246.44-22.48L246.44-22.48Q245.86-20.71 244.91-15.98L244.91-15.98L244.91-15.98Q243.95-11.25 243.95-7.89L243.95-7.89L243.95-7.89Q243.95-4.52 244.47-3.54L244.47-3.54L244.47-3.54Q244.99-2.55 245.92-2.55L245.92-2.55L245.92-2.55Q247.78-2.55 249.14-4.32L249.14-4.32L249.14-4.32Q250.50-6.09 251.02-9.22L251.02-9.22L254.10-26.22L254.10-26.22Q252.88-27.26 251.46-27.26L251.46-27.26L251.46-27.26Q250.04-27.26 249.20-26.80L249.20-26.80L249.20-26.80Q248.36-26.33 247.69-25.29ZM287.80-6.55L287.80-6.55L287.80-6.55Q284.78-3.42 279.27-3.42L279.27-3.42L279.27-3.42Q272.37-3.42 270.92-8.47L270.92-8.47L270.92-8.47Q270.45-9.98 270.45-11.66L270.45-11.66L270.45-11.66Q270.45-13.34 270.80-15.08L270.80-15.08L273.53-29.58L285.30-30.74L282.11-13.86L282.11-13.86Q282.00-13.11 281.82-12.30L281.82-12.30L281.82-12.30Q281.65-11.48 281.65-10.64L281.65-10.64L281.65-10.64Q281.65-9.80 281.94-9.25L281.94-9.25L281.94-9.25Q282.23-8.70 282.63-8.35L282.63-8.35L282.63-8.35Q283.33-7.89 284.58-7.89L284.58-7.89L284.58-7.89Q285.82-7.89 286.90-9.40L286.90-9.40L286.90-9.40Q287.97-10.90 288.49-13.51L288.49-13.51L291.68-29.58L303.11-30.74L298.76-7.95L298.76-7.95Q296.61 3.19 292.20 7.60L292.20 7.60L292.20 7.60Q289.94 9.86 287.01 10.76L287.01 10.76L287.01 10.76Q284.08 11.66 280.31 11.66L280.31 11.66L280.31 11.66Q274.22 11.66 270.74 9.74L270.74 9.74L270.74 9.74Q267.26 7.83 267.26 4.64L267.26 4.64L267.26 4.64Q267.26 2.26 269.06 0.90L269.06 0.90L269.06 0.90Q270.86-0.46 273.64-0.46L273.64-0.46L273.64-0.46Q276.08-0.46 277.94 0.58L277.94 0.58L277.94 0.58Q279.04 1.22 279.56 2.03L279.56 2.03L279.56 2.03Q278.23 3.19 278.23 5.10L278.23 5.10L278.23 5.10Q278.23 7.66 280.55 7.66L280.55 7.66L280.55 7.66Q284.37 7.66 286.58-1.16L286.58-1.16L286.58-1.16Q287.22-3.77 287.80-6.55Z" fill="#4f97c4"></path></g></g><style>text {
  font-size: 64px;
  font-family: Arial Black;
  dominant-baseline: central;
  text-anchor: middle;
}</style></svg>